<svg xmlns="http://www.w3.org/2000/svg" width="199" height="205" viewBox="0 0 199 205">
  <defs>
    <style>
      .cls-1 {
        fill-rule: evenodd;
      }
    </style>
  </defs>
  <path id="Tile_2_1" data-name="Tile 2 1" class="cls-1" d="M22,215.392L212.638,19H221L22,224v-8.608ZM183.187,19h8.361L22,193.661v-8.609Zm-29.85,0H161.7L22,162.911V154.3Zm-29.85,0h8.361L22,132.161v-8.609Zm-29.85,0H102L22,101.411V92.8ZM63.393,19H71.75L22,70.25V61.642ZM33.937,19H42.3L22,39.911V31.3ZM45.48,224L221,43.189V51.8L53.837,224H45.48Zm31.842,0L221,75.991V84.6L85.679,224H77.322Zm32.036,0L221,108.993v8.613L117.72,224h-8.362Zm31.842,0L221,141.795V150.4L149.557,224H141.2Zm32.236,0L221,175.007v8.609L181.8,224h-8.361Zm31.842,0L221,207.8v8.609L213.634,224h-8.356Z" transform="translate(-22 -19)"/>
</svg>
